<?xml version="1.0" encoding="UTF-8" standalone="no"?><!DOCTYPE svg PUBLIC "-//W3C//DTD SVG 1.1//EN" "http://www.w3.org/Graphics/SVG/1.1/DTD/svg11.dtd"><svg width="100%" height="100%" viewBox="0 0 101 101" version="1.1" xmlns="http://www.w3.org/2000/svg" xmlns:xlink="http://www.w3.org/1999/xlink" xml:space="preserve" xmlns:serif="http://www.serif.com/" style="fill-rule:evenodd;clip-rule:evenodd;stroke-linecap:round;stroke-linejoin:round;stroke-miterlimit:1.5;"><g><path d="M50.007,0c27.6,0 50.007,22.407 50.007,50.007c0,27.6 -22.407,50.007 -50.007,50.007c-27.6,0 -50.007,-22.407 -50.007,-50.007c0,-27.6 22.407,-50.007 50.007,-50.007Zm0,8.492c22.913,0 41.515,18.603 41.515,41.515c-0,22.913 -18.602,41.515 -41.515,41.515c-22.912,-0 -41.515,-18.602 -41.515,-41.515c0,-22.912 18.603,-41.515 41.515,-41.515Z" style="fill:#4988ad;"/><g><path d="M19.37,50.235c0,0 18.857,26.857 45.718,-0.105l14.721,-12.256" style="fill:none;stroke:#4988ad;stroke-width:6.44px;"/><path d="M19.37,49.779c0,-0 18.857,-26.857 45.718,0.105l14.721,12.256" style="fill:none;stroke:#4988ad;stroke-width:6.44px;"/></g><circle cx="35.931" cy="47.215" r="2.792" style="fill:#4988ad;"/><path d="M79.809,37.874l-0,24.266" style="fill:none;stroke:#4988ad;stroke-width:6.25px;"/></g></svg>