<?xml version="1.0" encoding="UTF-8" standalone="no"?><!DOCTYPE svg PUBLIC "-//W3C//DTD SVG 1.1//EN" "http://www.w3.org/Graphics/SVG/1.1/DTD/svg11.dtd"><svg width="100%" height="100%" viewBox="0 0 101 101" version="1.1" xmlns="http://www.w3.org/2000/svg" xmlns:xlink="http://www.w3.org/1999/xlink" xml:space="preserve" xmlns:serif="http://www.serif.com/" style="fill-rule:evenodd;clip-rule:evenodd;stroke-linejoin:round;stroke-miterlimit:2;"><g><path d="M50.007,0c27.6,0 50.007,22.407 50.007,50.007c0,27.6 -22.407,50.007 -50.007,50.007c-27.6,0 -50.007,-22.407 -50.007,-50.007c0,-27.6 22.407,-50.007 50.007,-50.007Zm0,8.492c22.913,0 41.515,18.603 41.515,41.515c-0,22.913 -18.602,41.515 -41.515,41.515c-22.912,-0 -41.515,-18.602 -41.515,-41.515c0,-22.912 18.603,-41.515 41.515,-41.515Z" style="fill:#269c56;"/><path d="M46.787,65.312c0,0 -2.457,-18.542 14.327,-23.733c16.784,-5.191 19.074,-8.886 19.693,-10.854c0,0 8.793,35.305 -25.977,38.564c0,-0 -1.613,-11.269 14.991,-20.445c-0,0 -13.115,0.985 -23.034,16.468Z" style="fill:#269c56;"/><path d="M43.829,59.446c0,-0 1.798,-13.565 -10.481,-17.363c-12.279,-3.798 -13.954,-6.501 -14.408,-7.941c0,0 -6.432,25.829 19.005,28.213c0,0 1.18,-8.244 -10.967,-14.957c0,0 9.595,0.721 16.851,12.048Z" style="fill:#269c56;"/></g></svg>