<?xml version="1.0" encoding="UTF-8" standalone="no"?><!DOCTYPE svg PUBLIC "-//W3C//DTD SVG 1.1//EN" "http://www.w3.org/Graphics/SVG/1.1/DTD/svg11.dtd"><svg width="100%" height="100%" viewBox="0 0 101 101" version="1.1" xmlns="http://www.w3.org/2000/svg" xmlns:xlink="http://www.w3.org/1999/xlink" xml:space="preserve" xmlns:serif="http://www.serif.com/" style="fill-rule:evenodd;clip-rule:evenodd;stroke-linejoin:round;stroke-miterlimit:2;"><g><path d="M50.007,0c27.6,0 50.007,22.407 50.007,50.007c0,27.6 -22.407,50.007 -50.007,50.007c-27.6,0 -50.007,-22.407 -50.007,-50.007c0,-27.6 22.407,-50.007 50.007,-50.007Zm0,8.492c22.913,0 41.515,18.603 41.515,41.515c-0,22.913 -18.602,41.515 -41.515,41.515c-22.912,-0 -41.515,-18.602 -41.515,-41.515c0,-22.912 18.603,-41.515 41.515,-41.515Z" style="fill:#269c56;"/><path d="M33.673,72.568c0,-0 -9.183,-21.369 9.161,-33.234c18.343,-11.866 19.84,-17.06 19.919,-19.623c0,-0 22.412,39.302 -18.113,54.909c-0,0 -5.725,-12.946 11.062,-29.521c-0,0 -15.368,5.595 -22.029,27.469Z" style="fill:#269c56;"/></g></svg>